PathFileType	4	(X/Y/Z)	C:\Users\°ÂÌØÂü\Desktop\20210112\bx_n_10_901-Unnamed.trc
DataRate	CameraRate	NumFrames	NumMarkers	Units	OrigDataRate	OrigDataStartFrame	OrigNumFrames
50.00	50.00	       5	0	mm	50.00	324	       518
Frame#	Time	
		

324	6.460	-114.61881	109.42816	1006.76123	-658.33234	298.35526	158.19562	-935.08313	66.74294	1097.27429	-787.39136	192.02226	809.06604	-775.30054	-23.94889	800.92114	-671.63934	51.82952	163.48575	-867.01959	267.86603	725.70764	-810.84241	133.50330	564.36182	-863.73279	242.23912	621.79327	-767.45624	4.61768	524.31744	-781.21155	196.66942	534.69958	-861.95703	253.41954	481.30579	-517.97791	-72.81557	142.83112	-548.95435	-26.98130	163.56331	-813.39294	60.51377	565.12976	-792.27917	38.25812	170.97731	-596.85553	26.87136	167.02312				-721.63739	158.38147	221.69363	-798.36591	183.25183	179.13844	-772.53564	230.93777	201.30283	-593.04028	218.86967	173.58105	-882.76465	295.72635	144.40286	-556.53418	253.27403	163.77126				-622.05518	305.81909	158.32622	-528.09424	304.08292	146.33838	-835.32843	-51.11629	603.27466	-862.57062	-97.58431	854.45874	-847.83203	-57.88397	465.49741	-762.46442	-22.29608	200.11972	-875.80182	-78.66216	141.27701	-855.33868	-85.28432	739.21594	-844.82556	238.73372	560.58801				-830.45703	-47.49548	554.29626	-676.02893	176.08913	163.06456	-606.69165	-75.93202	155.77620	-648.19397	-67.70268	161.02654	-792.28973	212.76039	971.58667				-897.22882	269.84610	861.09552	
325	6.480	-115.00800	108.12525	1011.05194	-658.33234	298.35526	158.19562	-935.80090	66.65395	1097.00745	-787.57019	191.73944	808.91321	-775.60004	-25.15042	801.07452	-671.34015	52.07600	163.51125	-867.00708	267.51913	725.50592	-811.03168	133.33028	564.76849	-863.73279	242.23912	621.79327	-767.99353	4.04001	524.20813	-781.70190	196.50450	534.53735	-862.20978	253.58598	480.94373	-518.07227	-72.69772	142.78549	-549.01685	-26.89713	163.58539	-813.80933	60.03680	564.77661	-792.27728	38.21222	170.95885	-596.94550	26.81318	167.13211				-721.85590	158.26627	221.66971	-798.30902	183.26819	179.06097	-772.50220	230.79324	201.32980	-593.04810	218.73457	173.53529	-882.60962	296.20642	144.76245	-556.43823	253.03395	163.77946				-621.89191	305.86520	158.50224	-527.91797	303.85715	146.21513	-835.91034	-50.97150	603.17871	-863.29572	-97.44437	853.92169	-848.54437	-57.35137	464.78848	-762.67957	-22.05645	199.98244	-875.80023	-78.62018	141.04199	-856.19232	-85.35542	738.91864	-845.17511	238.52054	560.49823				-831.02100	-47.24662	553.74005	-676.11700	176.00786	162.98567	-606.82874	-75.87397	155.62169	-648.43317	-67.74578	161.15564	-792.27069	212.29829	971.66382				-897.16144	269.87363	861.30011	
326	6.500	-115.03493	106.94366	1015.30273	-658.33234	298.35526	158.19562	-936.91107	66.54472	1096.55530	-787.52039	191.17068	808.69202	-776.76227	-25.20895	800.17841	-671.34015	52.07600	163.51125	-867.09814	266.85599	725.45465	-811.55646	133.08208	564.56940	-864.07629	242.12282	621.75543	-769.23071	4.71273	523.47821	-782.34705	196.16557	534.13196	-862.40613	253.37335	480.84888	-518.07227	-72.69772	142.78549	-549.01685	-26.89713	163.58539	-814.86987	60.09646	564.51849	-792.51105	38.34811	170.94440	-597.01343	26.79741	166.96507				-721.85590	158.26627	221.66971	-798.30212	183.21056	179.12834	-772.52295	230.71935	201.34781	-592.99109	218.56006	173.47549	-882.33295	296.01959	144.68970	-556.46381	253.17981	163.48993				-621.83026	305.92624	158.37436	-527.99573	304.05231	146.36934	-837.19220	-50.61220	602.54572	-864.78632	-97.64088	853.46393	-849.33429	-57.67703	464.95099	-762.76935	-22.00581	199.94025	-875.87097	-78.64214	141.18979	-857.26215	-85.73315	738.54712	-845.56921	238.34695	560.27301				-832.15039	-46.94374	553.70331	-676.08417	175.93004	162.86389	-606.95203	-75.92597	155.83022	-648.22345	-67.79797	160.96880	-792.03375	212.03239	972.24200				-896.97168	268.53900	861.02319	
327	6.520	-114.76927	105.58003	1020.39154	-658.42163	298.18924	158.20045	-937.84369	66.25616	1096.53101	-787.42773	191.06483	808.72064	-777.34576	-25.40802	799.49005	-671.55450	51.83783	163.22688	-867.24994	266.01697	725.30365	-812.14514	133.11711	564.47235	-864.35645	242.00635	621.88934	-769.90601	4.21592	523.71820	-782.65454	196.13972	534.43890	-862.75177	253.46515	481.02090	-518.07227	-72.69772	142.78549	-549.08459	-26.99165	163.55293	-815.46503	59.97754	564.41089	-792.44897	38.44211	170.85648	-597.03534	26.92515	167.11906				-721.84174	158.41675	221.89493	-798.40637	183.21695	179.10542	-772.71014	230.44223	201.47977	-592.98376	218.47478	173.35918	-882.52728	296.23694	144.71747	-556.58997	252.93857	163.45741				-621.92914	305.81595	158.22137	-528.08008	303.90033	146.29689	-838.17023	-51.22319	602.48224	-864.45264	-97.32918	853.18793	-849.59552	-57.94599	464.93655	-762.97821	-22.07240	200.06912	-875.78961	-78.57214	141.09050	-857.72906	-85.94048	738.45715	-846.24640	237.80583	559.82788				-832.69946	-47.43644	553.75928	-676.00403	175.62624	162.81242	-607.00739	-75.75385	155.66986	-648.26190	-67.82198	160.97623	-792.23773	211.87993	973.71350				-896.71039	267.91989	860.93250	
328	6.540	-114.81167	104.30507	1025.89099	-658.33234	298.35526	158.19562	-938.96686	65.83704	1096.44519	-786.36151	191.36812	808.89819	-777.52386	-25.71720	799.78735	-671.49664	52.03782	163.63583	-867.47156	265.62582	725.40253	-812.17078	133.02695	564.39685	-864.68384	241.99803	621.84393	-770.03131	4.46061	523.70850	-782.92255	196.11549	534.56110	-863.06696	253.41786	480.96011	-518.11456	-72.86227	142.81248	-549.21100	-26.78900	163.30142	-815.46503	59.97754	564.41089	-792.55621	38.41606	170.95703	-597.03247	26.89510	166.98419				-721.96332	158.07675	221.79938	-798.47534	183.23376	179.08356	-772.65173	230.48981	201.38097	-593.03723	218.42184	173.36176	-882.48108	296.18307	144.72214	-556.60919	253.21736	163.45137				-621.95319	306.00351	158.44951	-528.00604	303.86810	146.28801	-838.35724	-51.29019	602.58600	-864.84186	-97.78146	853.38013	-850.20435	-58.43261	465.14069	-763.18494	-21.91621	199.82182	-875.95374	-78.68990	141.32727	-858.40747	-86.34738	738.36249	-846.61835	237.85812	559.71350				-833.07056	-47.08886	553.39606	-676.11700	176.00786	162.98567	-607.10632	-76.12425	155.71429	-648.44312	-67.96616	160.87804	-792.24316	211.31961	973.95947				-896.37274	267.32071	860.98523	
